<svg xmlns="http://www.w3.org/2000/svg" xmlns:xlink="http://www.w3.org/1999/xlink" contentStyleType="text/css" data-diagram-type="DESCRIPTION" height="294px" preserveAspectRatio="none" style="width:516px;height:294px;background:#FFFFFF;" version="1.1" viewBox="0 0 516 294" width="516px" zoomAndPan="magnify"><defs/><g><!--cluster Kontekst: Marketing--><g class="cluster" data-entity="Kontekst. Marketing" data-source-line="7" data-uid="ent0004" id="cluster_Kontekst. Marketing"><rect fill="none" height="281" rx="2.5" ry="2.5" style="stroke:#181818;stroke-width:1;" width="280" x="230" y="7"/><text fill="#000000" font-family="sans-serif" font-size="14" font-weight="bold" lengthAdjust="spacing" textLength="161.998" x="289.001" y="21.9951">Kontekst: Marketing</text></g><!--entity UC1--><g class="entity" data-entity="UC1" data-source-line="8" data-uid="ent0005" id="entity_UC1"><ellipse cx="370.22" cy="68.944" fill="#F1F1F1" rx="122.72" ry="26.944" style="stroke:#181818;stroke-width:0.5;"/><text fill="#000000" font-family="sans-serif" font-size="14" lengthAdjust="spacing" textLength="225.1484" x="257.6458" y="73.5924">Tworzenie kod&#243;w promocyjnych</text></g><!--entity UC2--><g class="entity" data-entity="UC2" data-source-line="9" data-uid="ent0006" id="entity_UC2"><ellipse cx="370.1127" cy="158.2225" fill="#F1F1F1" rx="124.1127" ry="27.2225" style="stroke:#181818;stroke-width:0.5;"/><text fill="#000000" font-family="sans-serif" font-size="14" lengthAdjust="spacing" textLength="228.1084" x="256.0585" y="162.871">Zarz&#261;dzanie waznoscia promocji</text></g><!--entity UC3--><g class="entity" data-entity="UC3" data-source-line="10" data-uid="ent0007" id="entity_UC3"><ellipse cx="370.1055" cy="246.1211" fill="#F1F1F1" rx="116.1055" ry="25.6211" style="stroke:#181818;stroke-width:0.5;"/><text fill="#000000" font-family="sans-serif" font-size="14" lengthAdjust="spacing" textLength="211.0254" x="264.5928" y="250.7695">Aplikowanie kodu rabatowego</text></g><!--entity admin--><g class="entity" data-entity="admin" data-source-line="4" data-uid="ent0002" id="entity_admin"><ellipse cx="95.7866" cy="72.5" fill="#F1F1F1" rx="8" ry="8" style="stroke:#181818;stroke-width:0.5;"/><path d="M95.7866,80.5 L95.7866,107.5 M82.7866,88.5 L108.7866,88.5 M95.7866,107.5 L82.7866,122.5 M95.7866,107.5 L108.7866,122.5" fill="none" style="stroke:#181818;stroke-width:0.5;"/><text fill="#000000" font-family="sans-serif" font-size="14" lengthAdjust="spacing" textLength="179.5732" x="6" y="136.9951">Administrator / Marketing</text></g><!--entity klient--><g class="entity" data-entity="klient" data-source-line="5" data-uid="ent0003" id="entity_klient"><ellipse cx="95.9678" cy="216.5" fill="#F1F1F1" rx="8" ry="8" style="stroke:#181818;stroke-width:0.5;"/><path d="M95.9678,224.5 L95.9678,251.5 M82.9678,232.5 L108.9678,232.5 M95.9678,251.5 L82.9678,266.5 M95.9678,251.5 L108.9678,266.5" fill="none" style="stroke:#181818;stroke-width:0.5;"/><text fill="#000000" font-family="sans-serif" font-size="14" lengthAdjust="spacing" textLength="39.9355" x="76" y="280.9951">Klient</text></g><!--link admin to UC1--><g class="link" data-entity-1="admin" data-entity-2="UC1" data-source-line="13" data-uid="lnk8" id="link_admin_UC1"><path d="M186.06,91.19 C210.39,88.24 231.0438,85.7433 256.2438,82.6833" fill="none" id="admin-to-UC1" style="stroke:#181818;stroke-width:1;"/><polygon fill="#181818" points="262.2,81.96,252.7835,79.0741,257.2365,82.5627,253.7478,87.0157,262.2,81.96" style="stroke:#181818;stroke-width:1;"/></g><!--link admin to UC2--><g class="link" data-entity-1="admin" data-entity-2="UC2" data-source-line="14" data-uid="lnk9" id="link_admin_UC2"><path d="M186.06,120.34 C215.97,126.49 243.4434,132.1494 273.3934,138.3194" fill="none" id="admin-to-UC2" style="stroke:#181818;stroke-width:1;"/><polygon fill="#181818" points="279.27,139.53,271.2622,133.7963,274.3728,138.5211,269.648,141.6318,279.27,139.53" style="stroke:#181818;stroke-width:1;"/></g><!--link klient to UC3--><g class="link" data-entity-1="klient" data-entity-2="UC3" data-source-line="16" data-uid="lnk10" id="link_klient_UC3"><path d="M116.13,246 C144.91,246 195.57,246 247.98,246" fill="none" id="klient-to-UC3" style="stroke:#181818;stroke-width:1;"/><polygon fill="#181818" points="253.98,246,244.98,242,248.98,246,244.98,250,253.98,246" style="stroke:#181818;stroke-width:1;"/></g><!--SRC=[JO-nJWCn44HxVyKgVOH8EWgaY19H0GtTnhSu6_ky9tiZwowYv8lu1FWmpeUHhlDuvirg0hqhg41YTrBeE95LbcYovpXWmXu6j1uTFUiO2AgDqGKo1grAWisXwpboreHLti0J9a_AqMq0Cs1r_wEFWIdgyk-Nfp6jVFOaAlciT-k2gm6uPBAOvyHBaJHHP08ltVTNWI59BtOynz6UbjBNXziry8Pf-ldi9gnCmIbAjemDEtD3TclaC0JsKh1TkK32uxoha9CMtvkFUNfT1Tlj_N9ohNR6_4rhUlyB]--></g></svg>