<svg xmlns="http://www.w3.org/2000/svg" xmlns:xlink="http://www.w3.org/1999/xlink" contentStyleType="text/css" data-diagram-type="DESCRIPTION" height="564px" preserveAspectRatio="none" style="width:484px;height:564px;background:#FFFFFF;" version="1.1" viewBox="0 0 484 564" width="484px" zoomAndPan="magnify"><defs/><g><!--cluster Kontekst: Dostarczanie--><g class="cluster" data-entity="Kontekst. Dostarczanie" data-source-line="8" data-uid="ent0005" id="cluster_Kontekst. Dostarczanie"><rect fill="none" height="551" rx="2.5" ry="2.5" style="stroke:#181818;stroke-width:1;" width="304" x="174" y="7"/><text fill="#000000" font-family="sans-serif" font-size="14" font-weight="bold" lengthAdjust="spacing" textLength="184.2012" x="233.8994" y="21.9951">Kontekst: Dostarczanie</text></g><!--entity UC1--><g class="entity" data-entity="UC1" data-source-line="9" data-uid="ent0006" id="entity_UC1"><ellipse cx="326.2072" cy="68.8414" fill="#F1F1F1" rx="119.7072" ry="26.3414" style="stroke:#181818;stroke-width:0.5;"/><text fill="#000000" font-family="sans-serif" font-size="14" lengthAdjust="spacing" textLength="218.7295" x="216.8425" y="73.4899">Zarzadzanie adresami dostawy</text></g><!--entity UC2--><g class="entity" data-entity="UC2" data-source-line="10" data-uid="ent0007" id="entity_UC2"><ellipse cx="326.1955" cy="157.8391" fill="#F1F1F1" rx="124.6955" ry="27.3391" style="stroke:#181818;stroke-width:0.5;"/><text fill="#000000" font-family="sans-serif" font-size="14" lengthAdjust="spacing" textLength="229.3457" x="211.5226" y="162.4875">Aktualizacja statusu dost&#281;pnosci</text></g><!--entity UC3--><g class="entity" data-entity="UC3" data-source-line="11" data-uid="ent0008" id="entity_UC3"><ellipse cx="325.7634" cy="244.9527" fill="#F1F1F1" rx="107.7634" ry="23.9527" style="stroke:#181818;stroke-width:0.5;"/><text fill="#000000" font-family="sans-serif" font-size="14" lengthAdjust="spacing" textLength="193.0332" x="229.2468" y="249.6011">Odbi&#243;r zam&#243;wienia z lokalu</text></g><!--entity UC4--><g class="entity" data-entity="UC4" data-source-line="12" data-uid="ent0009" id="entity_UC4"><ellipse cx="325.9795" cy="334.0959" fill="#F1F1F1" rx="135.9795" ry="29.5959" style="stroke:#181818;stroke-width:0.5;"/><text fill="#000000" font-family="sans-serif" font-size="14" lengthAdjust="spacing" textLength="253.1689" x="199.3951" y="338.7443">Dostarczenie zam&#243;wienia do klienta</text></g><!--entity UC5--><g class="entity" data-entity="UC5" data-source-line="13" data-uid="ent0010" id="entity_UC5"><ellipse cx="325.962" cy="427.1924" fill="#F1F1F1" rx="131.462" ry="28.6924" style="stroke:#181818;stroke-width:0.5;"/><text fill="#000000" font-family="sans-serif" font-size="14" lengthAdjust="spacing" textLength="243.6602" x="204.132" y="431.8408">Przypisanie zam&#243;wienia do kuriera</text></g><!--entity UC6--><g class="entity" data-entity="UC6" data-source-line="14" data-uid="ent0011" id="entity_UC6"><ellipse cx="325.8725" cy="515.9745" fill="#F1F1F1" rx="115.3725" ry="25.4745" style="stroke:#181818;stroke-width:0.5;"/><text fill="#000000" font-family="sans-serif" font-size="14" lengthAdjust="spacing" textLength="209.4531" x="221.1459" y="520.6229">Rejestrowanie czas&#243;w dostaw</text></g><!--entity klient--><g class="entity" data-entity="klient" data-source-line="4" data-uid="ent0002" id="entity_klient"><ellipse cx="67.9678" cy="39.5" fill="#F1F1F1" rx="8" ry="8" style="stroke:#181818;stroke-width:0.5;"/><path d="M67.9678,47.5 L67.9678,74.5 M54.9678,55.5 L80.9678,55.5 M67.9678,74.5 L54.9678,89.5 M67.9678,74.5 L80.9678,89.5" fill="none" style="stroke:#181818;stroke-width:0.5;"/><text fill="#000000" font-family="sans-serif" font-size="14" lengthAdjust="spacing" textLength="39.9355" x="48" y="103.9951">Klient</text></g><!--entity kurier--><g class="entity" data-entity="kurier" data-source-line="5" data-uid="ent0003" id="entity_kurier"><ellipse cx="68.0342" cy="215.5" fill="#F1F1F1" rx="8" ry="8" style="stroke:#181818;stroke-width:0.5;"/><path d="M68.0342,223.5 L68.0342,250.5 M55.0342,231.5 L81.0342,231.5 M68.0342,250.5 L55.0342,265.5 M68.0342,250.5 L81.0342,265.5" fill="none" style="stroke:#181818;stroke-width:0.5;"/><text fill="#000000" font-family="sans-serif" font-size="14" lengthAdjust="spacing" textLength="42.0684" x="47" y="279.9951">Kurier</text></g><!--entity sys--><g class="entity" data-entity="sys" data-source-line="6" data-uid="ent0004" id="entity_sys"><ellipse cx="67.9355" cy="449.2969" fill="#F1F1F1" rx="8" ry="8" style="stroke:#181818;stroke-width:0.5;"/><path d="M67.9355,457.2969 L67.9355,484.2969 M54.9355,465.2969 L80.9355,465.2969 M67.9355,484.2969 L54.9355,499.2969 M67.9355,484.2969 L80.9355,499.2969" fill="none" style="stroke:#181818;stroke-width:0.5;"/><text fill="#000000" font-family="sans-serif" font-size="14" lengthAdjust="spacing" textLength="52.2061" x="41.8325" y="513.792">System</text><text fill="#000000" font-family="sans-serif" font-size="14" font-style="italic" lengthAdjust="spacing" textLength="121.8711" x="7" y="437.4951">&#171;Automatyzacja&#187;</text></g><!--link klient to UC1--><g class="link" data-entity-1="klient" data-entity-2="UC1" data-source-line="17" data-uid="lnk12" id="link_klient_UC1"><path d="M88.24,69 C113.77,69 154.92,69 200.47,69" fill="none" id="klient-to-UC1" style="stroke:#181818;stroke-width:1;"/><polygon fill="#181818" points="206.47,69,197.47,65,201.47,69,197.47,73,206.47,69" style="stroke:#181818;stroke-width:1;"/></g><!--link kurier to UC2--><g class="link" data-entity-1="kurier" data-entity-2="UC2" data-source-line="19" data-uid="lnk13" id="link_kurier_UC2"><path d="M89.12,235.35 C108.53,226.27 138.86,212.67 166,203 C191,194.1 212.9112,187.364 238.0812,180.334" fill="none" id="kurier-to-UC2" style="stroke:#181818;stroke-width:1;"/><polygon fill="#181818" points="243.86,178.72,234.1157,177.2885,239.0443,180.065,236.2678,184.9936,243.86,178.72" style="stroke:#181818;stroke-width:1;"/></g><!--link kurier to UC3--><g class="link" data-entity-1="kurier" data-entity-2="UC3" data-source-line="20" data-uid="lnk14" id="link_kurier_UC3"><path d="M89.09,245 C116.96,245 163.42,245 211.81,245" fill="none" id="kurier-to-UC3" style="stroke:#181818;stroke-width:1;"/><polygon fill="#181818" points="217.81,245,208.81,241,212.81,245,208.81,249,217.81,245" style="stroke:#181818;stroke-width:1;"/></g><!--link kurier to UC4--><g class="link" data-entity-1="kurier" data-entity-2="UC4" data-source-line="21" data-uid="lnk15" id="link_kurier_UC4"><path d="M89.19,254.28 C108.64,263.04 139,276.25 166,286 C190.41,294.81 211.5627,301.6372 236.1827,309.0172" fill="none" id="kurier-to-UC4" style="stroke:#181818;stroke-width:1;"/><polygon fill="#181818" points="241.93,310.74,234.4575,304.3242,237.1405,309.3043,232.1605,311.9874,241.93,310.74" style="stroke:#181818;stroke-width:1;"/></g><!--link sys to UC5--><g class="link" data-entity-1="sys" data-entity-2="UC5" data-source-line="23" data-uid="lnk16" id="link_sys_UC5"><path d="M130.32,460.46 C157.91,455.72 185.3166,451.0056 216.5266,445.6456" fill="none" id="sys-to-UC5" style="stroke:#181818;stroke-width:1;"/><polygon fill="#181818" points="222.44,444.63,212.8928,442.2111,217.5121,445.4763,214.2469,450.0956,222.44,444.63" style="stroke:#181818;stroke-width:1;"/></g><!--link sys to UC6--><g class="link" data-entity-1="sys" data-entity-2="UC6" data-source-line="24" data-uid="lnk17" id="link_sys_UC6"><path d="M130.32,481.78 C161.68,487.29 194.5405,493.0717 229.2005,499.1617" fill="none" id="sys-to-UC6" style="stroke:#181818;stroke-width:1;"/><polygon fill="#181818" points="235.11,500.2,226.938,494.7028,230.1854,499.3347,225.5536,502.5821,235.11,500.2" style="stroke:#181818;stroke-width:1;"/></g><!--SRC=[RP5DJWCn38NtEONLVHVqRu6gIXNiM82esB0pCwQaaqb6iQDg1d4Gpj4Zb8CnaqbHAh6pzTvdEo-6tWN4WTVx3u5IUof4EwkuqhP1ZpKqM5IufvsqXc2GqUuDAOM5E0-J1wF9oWIGeOhbdn2y9ZyAiRm8kvQ5wYXmox1URuEu6gNji3ZWPgDKMjdFS5QeOhc5UyU2lkZGQfh0fm88J0LoRtf5ts4P5S3I4sEjeHpynpPkURcxoVtRIW8Q7RT1xvB08Vf_lXlhkD09ckNGO_ccpoSF7TRdqx5_fqRemBWAJKZ-UUw_t4l3LJbKkfGJ9coHOq- -QnlD-1yLGxnGovnwfWEnU7UCN1yIzs2A8FbNwakfSJ5CfvkOYHf7fdvstSwlsuLImsUDpJAhLxy0]--></g></svg>