<svg xmlns="http://www.w3.org/2000/svg" xmlns:xlink="http://www.w3.org/1999/xlink" contentStyleType="text/css" data-diagram-type="DESCRIPTION" height="372px" preserveAspectRatio="none" style="width:511px;height:372px;background:#FFFFFF;" version="1.1" viewBox="0 0 511 372" width="511px" zoomAndPan="magnify"><defs/><g><!--cluster Kontekst: Reklamacje--><g class="cluster" data-entity="Kontekst. Reklamacje" data-source-line="7" data-uid="ent0004" id="cluster_Kontekst. Reklamacje"><rect fill="none" height="359" rx="2.5" ry="2.5" style="stroke:#181818;stroke-width:1;" width="277" x="228" y="7"/><text fill="#000000" font-family="sans-serif" font-size="14" font-weight="bold" lengthAdjust="spacing" textLength="171.8896" x="280.5552" y="21.9951">Kontekst: Reklamacje</text></g><!--entity UC1--><g class="entity" data-entity="UC1" data-source-line="8" data-uid="ent0005" id="entity_UC1"><ellipse cx="366.4051" cy="68.881" fill="#F1F1F1" rx="122.4051" ry="26.881" style="stroke:#181818;stroke-width:0.5;"/><text fill="#000000" font-family="sans-serif" font-size="14" lengthAdjust="spacing" textLength="224.4785" x="254.1658" y="73.5295">Zgloszenie problemu/reklamacji</text></g><!--entity UC2--><g class="entity" data-entity="UC2" data-source-line="9" data-uid="ent0006" id="entity_UC2"><ellipse cx="366.6044" cy="326.9209" fill="#F1F1F1" rx="102.6044" ry="22.9209" style="stroke:#181818;stroke-width:0.5;"/><text fill="#000000" font-family="sans-serif" font-size="14" lengthAdjust="spacing" textLength="181.7813" x="275.7138" y="331.5693">Rozpatrywanie zgloszenia</text></g><!--entity UC3--><g class="entity" data-entity="UC3" data-source-line="10" data-uid="ent0007" id="entity_UC3"><ellipse cx="366.4652" cy="156.193" fill="#F1F1F1" rx="111.4652" ry="24.693" style="stroke:#181818;stroke-width:0.5;"/><text fill="#000000" font-family="sans-serif" font-size="14" lengthAdjust="spacing" textLength="201.0449" x="265.9427" y="160.8415">Sledzenie statusu reklamacji</text></g><!--entity UC4--><g class="entity" data-entity="UC4" data-source-line="11" data-uid="ent0008" id="entity_UC4"><ellipse cx="366.499" cy="241.7998" fill="#F1F1F1" rx="119.499" ry="26.2998" style="stroke:#181818;stroke-width:0.5;"/><text fill="#000000" font-family="sans-serif" font-size="14" lengthAdjust="spacing" textLength="218.2852" x="257.3565" y="246.4482">Zarzadzanie zwrotami srodk&#243;w</text></g><!--entity klient--><g class="entity" data-entity="klient" data-source-line="4" data-uid="ent0002" id="entity_klient"><ellipse cx="94.9678" cy="99.5" fill="#F1F1F1" rx="8" ry="8" style="stroke:#181818;stroke-width:0.5;"/><path d="M94.9678,107.5 L94.9678,134.5 M81.9678,115.5 L107.9678,115.5 M94.9678,134.5 L81.9678,149.5 M94.9678,134.5 L107.9678,149.5" fill="none" style="stroke:#181818;stroke-width:0.5;"/><text fill="#000000" font-family="sans-serif" font-size="14" lengthAdjust="spacing" textLength="39.9355" x="75" y="163.9951">Klient</text></g><!--entity support--><g class="entity" data-entity="support" data-source-line="5" data-uid="ent0003" id="entity_support"><ellipse cx="95.209" cy="240.5" fill="#F1F1F1" rx="8" ry="8" style="stroke:#181818;stroke-width:0.5;"/><path d="M95.209,248.5 L95.209,275.5 M82.209,256.5 L108.209,256.5 M95.209,275.5 L82.209,290.5 M95.209,275.5 L108.209,290.5" fill="none" style="stroke:#181818;stroke-width:0.5;"/><text fill="#000000" font-family="sans-serif" font-size="14" lengthAdjust="spacing" textLength="178.418" x="6" y="304.9951">Pracownik BOK (Obsluga)</text></g><!--link klient to UC1--><g class="link" data-entity-1="klient" data-entity-2="UC1" data-source-line="14" data-uid="lnk9" id="link_klient_UC1"><path d="M115.38,124.68 C149.36,117.12 215.7233,102.3435 273.8633,89.4035" fill="none" id="klient-to-UC1" style="stroke:#181818;stroke-width:1;"/><polygon fill="#181818" points="279.72,88.1,270.066,86.1508,274.8394,89.1863,271.804,93.9597,279.72,88.1" style="stroke:#181818;stroke-width:1;"/></g><!--link klient to UC3--><g class="link" data-entity-1="klient" data-entity-2="UC3" data-source-line="15" data-uid="lnk10" id="link_klient_UC3"><path d="M115.38,130.94 C146.46,134.06 203.5698,139.7823 258.6098,145.2923" fill="none" id="klient-to-UC3" style="stroke:#181818;stroke-width:1;"/><polygon fill="#181818" points="264.58,145.89,256.0232,141.0134,259.6049,145.3919,255.2263,148.9736,264.58,145.89" style="stroke:#181818;stroke-width:1;"/></g><!--link support to UC2--><g class="link" data-entity-1="support" data-entity-2="UC2" data-source-line="17" data-uid="lnk11" id="link_support_UC2"><path d="M184.24,288.66 C218.78,295.97 252.0996,303.0196 285.1796,310.0096" fill="none" id="support-to-UC2" style="stroke:#181818;stroke-width:1;"/><polygon fill="#181818" points="291.05,311.25,283.0714,305.4757,286.158,310.2163,281.4175,313.3029,291.05,311.25" style="stroke:#181818;stroke-width:1;"/></g><!--link support to UC4--><g class="link" data-entity-1="support" data-entity-2="UC4" data-source-line="18" data-uid="lnk12" id="link_support_UC4"><path d="M184.24,260.83 C207.73,258.39 227.4022,256.3512 251.8022,253.8112" fill="none" id="support-to-UC4" style="stroke:#181818;stroke-width:1;"/><polygon fill="#181818" points="257.77,253.19,248.4042,250.1433,252.7969,253.7077,249.2325,258.1004,257.77,253.19" style="stroke:#181818;stroke-width:1;"/></g><!--SRC=[PP0xJWCn48RxESKe5HGH8ab5GG5bYg14D7GJxx0uzjhMUAnL5d4gZi35IFOX9T3Du_i_ZSRpkw9655j_A5PMsAYD0RAp8P5GWucCevftUlICvpM5sZC06Os2ixMt77I6bD7rvRHu4JAn3TRXqsQDDvjzzgMcsvxC9QKe2Z3AJveOb5tM1zooyzIGEV0CFm6nP3QKJyXRxMFkE5Z6977lkIbtCi6szxu-trycjh5Bf79iwHpgfZoDxEAItNck1dbMqf8B_dClhwuXwQZg1dChKQcnc2LMxkUx7GCh-08OleBp-MD_tbMx11XVCGuMV_hLBm00]--></g></svg>