<svg xmlns="http://www.w3.org/2000/svg" xmlns:xlink="http://www.w3.org/1999/xlink" contentStyleType="text/css" data-diagram-type="DESCRIPTION" height="370px" preserveAspectRatio="none" style="width:451px;height:370px;background:#FFFFFF;" version="1.1" viewBox="0 0 451 370" width="451px" zoomAndPan="magnify"><defs/><g><!--cluster Kontekst: Zam?wienia--><g class="cluster" data-entity="Kontekst. Zam.wienia" data-source-line="7" data-uid="ent0004" id="cluster_Kontekst. Zam.wienia"><rect fill="none" height="354" rx="2.5" ry="2.5" style="stroke:#181818;stroke-width:1;" width="271" x="174" y="7"/><text fill="#000000" font-family="sans-serif" font-size="14" font-weight="bold" lengthAdjust="spacing" textLength="176.6748" x="221.1626" y="21.9951">Kontekst: Zam&#243;wienia</text></g><!--entity UC1--><g class="entity" data-entity="UC1" data-source-line="8" data-uid="ent0005" id="entity_UC1"><ellipse cx="309.5797" cy="63.1159" fill="#F1F1F1" rx="91.0797" ry="20.6159" style="stroke:#181818;stroke-width:0.5;"/><text fill="#000000" font-family="sans-serif" font-size="14" lengthAdjust="spacing" textLength="156.1807" x="231.4893" y="67.7644">Skladanie zam&#243;wienia</text></g><!--entity UC2--><g class="entity" data-entity="UC2" data-source-line="9" data-uid="ent0006" id="entity_UC2"><ellipse cx="309.4818" cy="144.1964" fill="#F1F1F1" rx="116.4818" ry="25.6964" style="stroke:#181818;stroke-width:0.5;"/><text fill="#000000" font-family="sans-serif" font-size="14" lengthAdjust="spacing" textLength="211.832" x="203.5658" y="148.8448">Sledzenie statusu zam&#243;wienia</text></g><!--entity UC3--><g class="entity" data-entity="UC3" data-source-line="10" data-uid="ent0007" id="entity_UC3"><ellipse cx="309.3005" cy="230.7601" fill="#F1F1F1" rx="119.3005" ry="26.2601" style="stroke:#181818;stroke-width:0.5;"/><text fill="#000000" font-family="sans-serif" font-size="14" lengthAdjust="spacing" textLength="217.8613" x="200.3699" y="235.4085">Przegladanie historii zam&#243;wien</text></g><!--entity UC4--><g class="entity" data-entity="UC4" data-source-line="11" data-uid="ent0008" id="entity_UC4"><ellipse cx="309.3839" cy="318.7768" fill="#F1F1F1" rx="116.8839" ry="25.7768" style="stroke:#181818;stroke-width:0.5;"/><text fill="#000000" font-family="sans-serif" font-size="14" lengthAdjust="spacing" textLength="212.6934" x="203.0372" y="323.4252">Automatyczna zmiana statusu</text></g><!--entity klient--><g class="entity" data-entity="klient" data-source-line="4" data-uid="ent0002" id="entity_klient"><ellipse cx="67.9678" cy="114.5" fill="#F1F1F1" rx="8" ry="8" style="stroke:#181818;stroke-width:0.5;"/><path d="M67.9678,122.5 L67.9678,149.5 M54.9678,130.5 L80.9678,130.5 M67.9678,149.5 L54.9678,164.5 M67.9678,149.5 L80.9678,164.5" fill="none" style="stroke:#181818;stroke-width:0.5;"/><text fill="#000000" font-family="sans-serif" font-size="14" lengthAdjust="spacing" textLength="39.9355" x="48" y="178.9951">Klient</text></g><!--entity sys--><g class="entity" data-entity="sys" data-source-line="5" data-uid="ent0003" id="entity_sys"><ellipse cx="67.9355" cy="297.2969" fill="#F1F1F1" rx="8" ry="8" style="stroke:#181818;stroke-width:0.5;"/><path d="M67.9355,305.2969 L67.9355,332.2969 M54.9355,313.2969 L80.9355,313.2969 M67.9355,332.2969 L54.9355,347.2969 M67.9355,332.2969 L80.9355,347.2969" fill="none" style="stroke:#181818;stroke-width:0.5;"/><text fill="#000000" font-family="sans-serif" font-size="14" lengthAdjust="spacing" textLength="52.2061" x="41.8325" y="361.792">System</text><text fill="#000000" font-family="sans-serif" font-size="14" font-style="italic" lengthAdjust="spacing" textLength="121.8711" x="7" y="285.4951">&#171;Automatyzacja&#187;</text></g><!--link klient to UC1--><g class="link" data-entity-1="klient" data-entity-2="UC1" data-source-line="14" data-uid="lnk9" id="link_klient_UC1"><path d="M88.33,134.35 C107.65,124.97 138.38,110.74 166,101 C191.48,92.02 214.3454,85.4699 239.2554,79.1299" fill="none" id="klient-to-UC1" style="stroke:#181818;stroke-width:1;"/><polygon fill="#181818" points="245.07,77.65,235.3615,75.9935,240.2245,78.8833,237.3347,83.7463,245.07,77.65" style="stroke:#181818;stroke-width:1;"/></g><!--link klient to UC2--><g class="link" data-entity-1="klient" data-entity-2="UC2" data-source-line="15" data-uid="lnk10" id="link_klient_UC2"><path d="M88.19,144 C111.39,144 146.36,144 186.73,144" fill="none" id="klient-to-UC2" style="stroke:#181818;stroke-width:1;"/><polygon fill="#181818" points="192.73,144,183.73,140,187.73,144,183.73,148,192.73,144" style="stroke:#181818;stroke-width:1;"/></g><!--link klient to UC3--><g class="link" data-entity-1="klient" data-entity-2="UC3" data-source-line="16" data-uid="lnk11" id="link_klient_UC3"><path d="M88.05,153.24 C107.41,162.45 138.4,176.66 166,187 C188.19,195.31 206.9824,201.5449 229.3424,208.3849" fill="none" id="klient-to-UC3" style="stroke:#181818;stroke-width:1;"/><polygon fill="#181818" points="235.08,210.14,227.6438,203.6823,230.2987,208.6774,225.3036,211.3323,235.08,210.14" style="stroke:#181818;stroke-width:1;"/></g><!--link sys to UC4--><g class="link" data-entity-1="sys" data-entity-2="UC4" data-source-line="18" data-uid="lnk12" id="link_sys_UC4"><path d="M130.06,319 C149.04,319 164.64,319 186.1,319" fill="none" id="sys-to-UC4" style="stroke:#181818;stroke-width:1;"/><polygon fill="#181818" points="192.1,319,183.1,315,187.1,319,183.1,323,192.1,319" style="stroke:#181818;stroke-width:1;"/></g><!--SRC=[RP0nRiCm34LtdeBmdg59fY8mK7JiKi3eqesGMOUrB0ScZS8ASgeUeHUhxDYe3NIIFlx_JnGzVnXQYvrKPyDIEdOcRG2j9LoeemOlv6ggkB31CuusXSep03bhEynUl72m34cndgwBKGngt4o63egdqrDlRKCsH7AVbES0Cpansc1SgptYEpK_try98vJX5H1xPKUQCaNjgQGWZ76TIVItvuTDq7CPUGogaVNQ_rFOhmklNUHgWPz5q_GYVwMvSbXNbg-u60XZ8vIE-RKvVeGRm7qXkDlbqv0RkT_A0y2ufRiu_W80]--></g></svg>