<svg xmlns="http://www.w3.org/2000/svg" xmlns:xlink="http://www.w3.org/1999/xlink" contentStyleType="text/css" data-diagram-type="DESCRIPTION" height="400px" preserveAspectRatio="none" style="width:641px;height:400px;background:#FFFFFF;" version="1.1" viewBox="0 0 641 400" width="641px" zoomAndPan="magnify"><defs/><g><!--cluster Kontekst: Oferta--><g class="cluster" data-entity="Kontekst. Oferta" data-source-line="7" data-uid="ent0004" id="cluster_Kontekst. Oferta"><rect fill="none" height="387" rx="2.5" ry="2.5" style="stroke:#181818;stroke-width:1;" width="358" x="277" y="7"/><text fill="#000000" font-family="sans-serif" font-size="14" font-weight="bold" lengthAdjust="spacing" textLength="131.9609" x="390.0195" y="21.9951">Kontekst: Oferta</text></g><!--entity UC1--><g class="entity" data-entity="UC1" data-source-line="8" data-uid="ent0005" id="entity_UC1"><ellipse cx="455.7741" cy="165.9548" fill="#F1F1F1" rx="162.7741" ry="34.9548" style="stroke:#181818;stroke-width:0.5;"/><text fill="#000000" font-family="sans-serif" font-size="14" lengthAdjust="spacing" textLength="308.9844" x="301.2819" y="170.6033">Zarzadzanie ofert\ produktowa (dodaj/usun)</text></g><!--entity UC2--><g class="entity" data-entity="UC2" data-source-line="9" data-uid="ent0006" id="entity_UC2"><ellipse cx="455.8033" cy="262.8607" fill="#F1F1F1" rx="119.8033" ry="26.3607" style="stroke:#181818;stroke-width:0.5;"/><text fill="#000000" font-family="sans-serif" font-size="14" lengthAdjust="spacing" textLength="218.9346" x="346.336" y="267.5091">Zarzadzanie kategoriami menu</text></g><!--entity UC3--><g class="entity" data-entity="UC3" data-source-line="10" data-uid="ent0007" id="entity_UC3"><ellipse cx="456.2075" cy="351.1415" fill="#F1F1F1" rx="121.2075" ry="26.6415" style="stroke:#181818;stroke-width:0.5;"/><text fill="#000000" font-family="sans-serif" font-size="14" lengthAdjust="spacing" textLength="221.9287" x="345.2431" y="355.7899">Przegladanie dostepnego menu</text></g><!--entity UC4--><g class="entity" data-entity="UC4" data-source-line="11" data-uid="ent0008" id="entity_UC4"><ellipse cx="455.7554" cy="68.9511" fill="#F1F1F1" rx="122.7554" ry="26.9511" style="stroke:#181818;stroke-width:0.5;"/><text fill="#000000" font-family="sans-serif" font-size="14" lengthAdjust="spacing" textLength="225.2236" x="343.1435" y="73.5995">Zarzadzanie wariantami/cenami</text></g><!--entity admin--><g class="entity" data-entity="admin" data-source-line="4" data-uid="ent0002" id="entity_admin"><ellipse cx="119.5073" cy="136.5" fill="#F1F1F1" rx="8" ry="8" style="stroke:#181818;stroke-width:0.5;"/><path d="M119.5073,144.5 L119.5073,171.5 M106.5073,152.5 L132.5073,152.5 M119.5073,171.5 L106.5073,186.5 M119.5073,171.5 L132.5073,186.5" fill="none" style="stroke:#181818;stroke-width:0.5;"/><text fill="#000000" font-family="sans-serif" font-size="14" lengthAdjust="spacing" textLength="227.0146" x="6" y="200.9951">Administrator / Pracownik lokalu</text></g><!--entity klient--><g class="entity" data-entity="klient" data-source-line="5" data-uid="ent0003" id="entity_klient"><ellipse cx="119.4678" cy="321.5" fill="#F1F1F1" rx="8" ry="8" style="stroke:#181818;stroke-width:0.5;"/><path d="M119.4678,329.5 L119.4678,356.5 M106.4678,337.5 L132.4678,337.5 M119.4678,356.5 L106.4678,371.5 M119.4678,356.5 L132.4678,371.5" fill="none" style="stroke:#181818;stroke-width:0.5;"/><text fill="#000000" font-family="sans-serif" font-size="14" lengthAdjust="spacing" textLength="39.9355" x="99.5" y="385.9951">Klient</text></g><!--link admin to UC1--><g class="link" data-entity-1="admin" data-entity-2="UC1" data-source-line="14" data-uid="lnk9" id="link_admin_UC1"><path d="M233.28,166 C252.44,166 266.66,166 286.79,166" fill="none" id="admin-to-UC1" style="stroke:#181818;stroke-width:1;"/><polygon fill="#181818" points="292.79,166,283.79,162,287.79,166,283.79,170,292.79,166" style="stroke:#181818;stroke-width:1;"/></g><!--link admin to UC2--><g class="link" data-entity-1="admin" data-entity-2="UC2" data-source-line="15" data-uid="lnk10" id="link_admin_UC2"><path d="M225.14,204.1 C239.79,209.01 254.72,213.78 269,218 C301.82,227.69 332.4994,235.4963 364.4294,243.0063" fill="none" id="admin-to-UC2" style="stroke:#181818;stroke-width:1;"/><polygon fill="#181818" points="370.27,244.38,362.4249,238.4257,365.4028,243.2352,360.5932,246.2132,370.27,244.38" style="stroke:#181818;stroke-width:1;"/></g><!--link admin to UC4--><g class="link" data-entity-1="admin" data-entity-2="UC4" data-source-line="16" data-uid="lnk11" id="link_admin_UC4"><path d="M222.67,127.87 C238.1,122.6 253.91,117.46 269,113 C300.66,103.64 329.963,96.2463 361.103,89.0763" fill="none" id="admin-to-UC4" style="stroke:#181818;stroke-width:1;"/><polygon fill="#181818" points="366.95,87.73,357.282,85.8514,362.0775,88.8519,359.077,93.6474,366.95,87.73" style="stroke:#181818;stroke-width:1;"/></g><!--link klient to UC3--><g class="link" data-entity-1="klient" data-entity-2="UC3" data-source-line="18" data-uid="lnk12" id="link_klient_UC3"><path d="M139.93,351 C177.44,351 256.5,351 328.8,351" fill="none" id="klient-to-UC3" style="stroke:#181818;stroke-width:1;"/><polygon fill="#181818" points="334.8,351,325.8,347,329.8,351,325.8,355,334.8,351" style="stroke:#181818;stroke-width:1;"/></g><!--SRC=[TL0zJyGm3DtpAwnEC9mgxcvYG4AC39o4M12BbVXAI6fNYQEA8luxQIbI6MwoNzw7enVfhA02oNVl2iudikg5JGwU1qpOmu0sO4VF-Xa9PXgvYsGCMfK4pRthFVki2MVOmYcXbP5zW2W1Osa0C-0i-dCyHa-iotjOLcFM6vKJLWfPR-7fJ4cnWIy3K39Pp9L-nJIXcv0zWSo2DnYIk19KHeGh9mu_sf8BNo_nBmytbzm1bJf97diFFN5PzVkj_fGcwYAwnU0aAmrSJLlzuLB-Y3MRjSQtbhYErN0qtxMwkGxOxUwM7sxH_Xyw6lFRq8eFFm00]--></g></svg>